<svg xmlns="http://www.w3.org/2000/svg" width="250" height="250" fill="none" viewBox="0 0 250 250">

  <path d="m36.94 100.1c0-5.5 0.47-10.27 0.47-13.96l15.1-3.51c2.4-8.67 4.68-13.61 8.78-20.57l-8.51-14.18c6.4-8.8 10.31-12.82 19.01-19.9l14.19 8.33c8.03-5.02 12.83-6.6 21.63-9.29l3.3-15.11c6.08-0.65 12.21-0.75 18.31-0.29 3.23 0.24 6.04 0.55 8.9 0.86l3.59 14.25c9.97 2.93 18.85 6.44 26.14 12.33l-14.18 16.45c-9.46-6.35-18.44-9.58-29.52-9.58-29.11 0-53.36 24.78-53.36 54.34 0 6.96 1.2 12.46 3.48 18.64l-14.86 16.19c-3.76-5.08-5.72-10.09-7.68-17.98l-14.79-3.36c0.13-3.85 0-9.43 0-13.66z" fill="url(#paint0_linear_1164_344)"></path>
  <path d="m40.04 88.68 14.67-3.27c2.3-10.3 5.07-15.5 10.32-23.7l-7.89-13.7c6.27-7.6 9.82-11.15 14.69-14.84l14.06 8.24c8.82-6.48 15.79-8.2 24.52-10.2l3.6-15.72c3.71-0.38 6.18-0.78 10.5-0.65l-0.32 22.78c10.13-0.41 24.14 3.19 33.03 8.59l7.22-7.75c-7.23-5.25-14.86-7.6-23.59-10.08l-3.69-14.17c-5.75-1.04-14.98-1.28-23.35-0.48l-3.7 14.97c-9.19 1.75-15.4 4.79-24 9.64l-14.28-7.92c-6.97 5.51-11.72 10.59-16.71 17.4l8.67 12.96c-5.48 8.08-7.76 13.43-9.68 22.44l-15.17 3.84c-0.63 5.92-0.75 10.68 0.05 15.8l22.2-2.16c0 8.16 1.24 15.6 5.08 23.32l-5.76 6.88c-3.24-5.16-5.2-9.76-6.88-14.8l-14.8-4.2c-0.8-7.08-0.64-14.44 1.21-23.22z" fill="url(#paint1_linear_1164_344)"></path>
  <path d="m211.4 86.01-15.33-3.39c-1.73-8.91-4.85-15.46-9.69-23.6l-14.95 15.76c3.76 6.96 6.07 14.93 6.07 23.68 0 29.25-23.95 55.01-53.32 55.01-12.11 0-23.19-4.29-32.81-12.67l-24.63 25.77 5.37 4.01 13.83-7.63c7.83 4.83 12.76 6.76 21.53 8.75l3.4 14.56c9.2 1.36 16.83 1.28 27.21 0l3.59-14.56c9.12-2.35 14.76-4.96 21.96-8.6l12.96 7.72c8.11-6.28 12.15-11.15 19-19.92l-8.32-13.28c4.84-6.96 6.91-11.9 8.64-20.39l15.32-3.61c1.57-8.8 1.45-16.61 0.17-27.61z" fill="url(#paint2_linear_1164_344)"></path>
  <path d="m185.5 61.14-4.39 5.47c4.83 8.8 6.86 16.37 6.86 27.5 0 34.08-27.92 69.36-64.83 69.36-13.04 0-22.92-3.72-32.04-10.45l4.76-4.76c8.12 5.25 16.48 7.8 26.95 7.8 32.38 0 56.97-29 56.97-58.96 0-9.2-2.13-17.44-6.68-24.72l12.4-11.24z" fill="url(#paint3_linear_1164_344)"></path>
  <path d="m142.7 56.14c-1.8 0-2.6 1.02-2.6 2.65v7.82h-7.45v-8.42c0-3.21-5.11-3.13-5.11-0.08v8.5h-7.84v-8.5c0-2.97-4.84-2.97-4.84-0.08v8.58h-6v-8.42c0-3.05-4.39-2.97-4.39-0.16v9.14h-3.61c-4.76 0-7.88 3.77-7.88 7.09v5.36h-9.24c-3.04 0-3.12 4.76 0 4.76h9.24v7.72h-9.52c-3.12 0-2.92 4.6-0.08 4.6h9.76v1.68l3.84-4.07v-18.19c0-2.64 1.84-4.45 4.56-4.45h37.2l6.2-6.73v-6.4c0-1.48-0.68-2.4-2.24-2.4z" fill="url(#paint4_linear_1164_344)"></path>
  <path d="m83.63 104h4.92l-5.12 5.1c-2.92-0.4-2.84-4.76 0.2-5.1z" fill="url(#paint5_linear_1164_344)"></path>
  <path d="m157.5 91.71h8.28c3.12 0 3.12 4.51 0 4.51h-9.32v8.36h9.24c3.2 0 3 4.52 0.08 4.52h-9.16v7.28h9.24c2.84 0 2.72 4.6-0.08 4.6h-9.8v2.72c0 5.12-3.56 7.92-8.04 7.92h-2.92v9.4c0 2.8-4.68 2.8-4.68 0v-9.4h-7.92v10.08c0 2.96-5.32 2.6-5.32 0v-10.08h-6.88v10.08c0 2.72-4.48 2.44-4.48 0v-10.08h-7.92v10.08c0 2.72-4.4 2.44-4.4 0v-10.08h-3.72l16.32-17.99 10.44 10 25.28-28.45 4.36-3.47h1.4z" fill="url(#paint6_linear_1164_344)"></path>
  <path d="m51.23 149.8 63.68-74.72 10.76 10.88 53.56-52.56-11.08-11.8 43.6-9.62-7.2 45.1-12.48-11.16-66.32 72.08-10.6-11.24-52.16 57.04-11.76-14z" fill="url(#paint7_linear_1164_344)"></path>
  <path d="m211.1 13.02-85 89.24-11-11.24-51.08 55.96 50.72-66.76 11.24 11.8 54.24-58-11.16-11.8 42.04-9.2z" fill="url(#paint8_linear_1164_344)"></path>
  <path d="m7.51 202.7h9.32v36.24h-9.32v-36.24z" fill="url(#paint9_linear_1164_344)"></path>
  <path d="m22.91 202.7h16l19.2 26.52h0.12v-26.52h9.32v36.24h-15.12l-19.2-26.52h-0.12v26.52h-10.2v-36.24z" fill="url(#paint10_linear_1164_344)"></path>
  <path d="m73.47 214.7c0-9.84 5.24-12.32 14.04-12.32h16c8.8 0 14.04 2.48 14.04 12.32v12.16c0 9.84-5.24 12.04-14.04 12.04h-16c-8.8 0-14.04-2.2-14.04-12.04v-12.16zm10.16 8.84c0 5.4 0.92 7.32 5.88 7.32h12.56c4.96 0 5.88-1.92 5.88-7.32v-5.8c0-4.68-0.92-7.32-6.56-7.32h-11.68c-5.16 0-6.08 2.64-6.08 7.32v5.8z" fill="url(#paint11_linear_1164_344)"></path>
  <path d="m118.8 202.7h10.4l12.88 27.08 12.88-27.08h10.96l-18.08 36.24h-12.08l-16.96-36.24z" fill="url(#paint12_linear_1164_344)"></path>
  <path d="m176.7 202.7h12.64l19.04 36.24h-10.84l-3.44-6.2h-21.52l-3.2 6.2h-10.24l17.56-36.24zm0.16 22.32h12.96l-6.68-14.56-6.28 14.56z" fill="url(#paint13_linear_1164_344)"></path>
  <path d="m203.1 202.7h38.84v8.12h-14.28v28.12h-10.28v-28.12h-14.28v-8.12z" fill="url(#paint14_linear_1164_344)"></path>
  <path d="m208.7 88.46-15.72-3.6-5.48-18.56-2.84-4.12-3.32 3.96c4.76 8.44 6.31 16 6.31 27.12 0 34.08-27.31 68.36-64.23 68.36-12.28 0-22.96-3.8-31.52-10.08l2.76-3.52-3.2-2.84-1.8 1.96 2.4 3.84c9.12 6.96 18.24 10.64 31 10.64 36.36 0 64.44-33.96 64.44-67.4 0-9.2-1.96-16.76-6.16-24.04l4.56-5 3.6 3.24 5.16 17.12 14.48 3.48c0.72 6.64 0.64 14.76-0.8 21.72l-14.96 3.96c-1.56 8.48-4.96 15.68-9.12 22.52l7.2 12.96-14.8 17.24 1.72-0.16 14.8-16.64-8.8-13.72c5.48-7.48 7.76-12.96 9.6-21.88l14.68-3.6c1.64-8.04 1.32-14.16 0.04-22.96z" fill="url(#paint15_linear_1164_344)" opacity=".5"></path>
  <defs>
    <linearGradient id="paint0_linear_1164_344" x1="101.3" x2="101.3" y1="12.01" y2="135.1" gradientUnits="userSpaceOnUse">
      <stop stop-color="#F0801A" offset="0"></stop>
      <stop stop-color="#F9B53B" offset="1"></stop>
    </linearGradient>
    <linearGradient id="paint1_linear_1164_344" x1="102.1" x2="102.1" y1="13.51" y2="130.7" gradientUnits="userSpaceOnUse">
      <stop stop-color="#FDD44E" offset="0"></stop>
      <stop stop-color="#FBB03B" offset=".48"></stop>
      <stop stop-color="#D44726" offset="1"></stop>
    </linearGradient>
    <linearGradient id="paint2_linear_1164_344" x1="139.4" x2="139.4" y1="59.02" y2="187.2" gradientUnits="userSpaceOnUse">
      <stop stop-color="#6A8396" offset="0"></stop>
      <stop stop-color="#113A61" offset=".57"></stop>
      <stop stop-color="#09294B" offset="1"></stop>
    </linearGradient>
    <linearGradient id="paint3_linear_1164_344" x1="172.2" x2="117.7" y1="67.1" y2="160.5" gradientUnits="userSpaceOnUse">
      <stop stop-color="#697881" offset="0"></stop>
      <stop stop-color="#B6B0B2" offset=".49"></stop>
      <stop stop-color="#4A5966" offset="1"></stop>
    </linearGradient>
    <linearGradient id="paint4_linear_1164_344" x1="113.2" x2="113.2" y1="56.14" y2="98.38" gradientUnits="userSpaceOnUse">
      <stop stop-color="#0B2A4A" offset="0"></stop>
      <stop stop-color="#0E2949" offset="1"></stop>
    </linearGradient>
    <linearGradient id="paint5_linear_1164_344" x1="85.27" x2="85.27" y1="103.7" y2="109.1" gradientUnits="userSpaceOnUse">
      <stop stop-color="#0B2A4A" offset="0"></stop>
      <stop stop-color="#0E2949" offset="1"></stop>
    </linearGradient>
    <linearGradient id="paint6_linear_1164_344" x1="134.3" x2="134.3" y1="91.71" y2="143.1" gradientUnits="userSpaceOnUse">
      <stop stop-color="#647689" offset="0"></stop>
      <stop stop-color="#1D3B59" offset=".57"></stop>
      <stop stop-color="#09294B" offset="1"></stop>
    </linearGradient>
    <linearGradient id="paint7_linear_1164_344" x1="131.7" x2="131.7" y1="12" y2="163.8" gradientUnits="userSpaceOnUse">
      <stop stop-color="#8F9194" offset="0"></stop>
      <stop stop-color="#C4C5C7" offset=".52"></stop>
      <stop stop-color="#54565A" offset="1"></stop>
    </linearGradient>
    <linearGradient id="paint8_linear_1164_344" x1="137.6" x2="137.6" y1="13.02" y2="106.3" gradientUnits="userSpaceOnUse">
      <stop stop-color="#B3B5B8" offset="0"></stop>
      <stop stop-color="#797B7E" offset="1"></stop>
    </linearGradient>
    <linearGradient id="paint9_linear_1164_344" x1="12.17" x2="12.17" y1="202.7" y2="238.9" gradientUnits="userSpaceOnUse"><stop stop-color="#FFFFFF" offset="0"></stop><stop stop-color="#FFFFFF" offset="1"></stop></linearGradient>
    <linearGradient id="paint10_linear_1164_344" x1="45.23" x2="45.23" y1="202.7" y2="238.9" gradientUnits="userSpaceOnUse"><stop stop-color="#FFFFFF" offset="0"></stop><stop stop-color="#FFFFFF" offset="1"></stop></linearGradient>
    <linearGradient id="paint11_linear_1164_344" x1="95.51" x2="95.51" y1="202.4" y2="238.9" gradientUnits="userSpaceOnUse"><stop stop-color="#FFFFFF" offset="0"></stop><stop stop-color="#FFFFFF" offset="1"></stop></linearGradient>
    <linearGradient id="paint12_linear_1164_344" x1="142.3" x2="142.3" y1="202.7" y2="238.9" gradientUnits="userSpaceOnUse"><stop stop-color="#FFFFFF" offset="0"></stop><stop stop-color="#FFFFFF" offset="1"></stop></linearGradient>
    <linearGradient id="paint13_linear_1164_344" x1="183.7" x2="183.7" y1="202.7" y2="238.9" gradientUnits="userSpaceOnUse"><stop stop-color="#FFFFFF" offset="0"></stop><stop stop-color="#FFFFFF" offset="1"></stop></linearGradient>
    <linearGradient id="paint14_linear_1164_344" x1="222.5" x2="222.5" y1="202.7" y2="238.9" gradientUnits="userSpaceOnUse"><stop stop-color="#FFFFFF" offset="0"></stop><stop stop-color="#FFFFFF" offset="1"></stop></linearGradient>
    <linearGradient id="paint15_linear_1164_344" x1="150.5" x2="150.5" y1="62.18" y2="161.6" gradientUnits="userSpaceOnUse">
      <stop stop-color="#B1B4B7" offset="0"></stop>
      <stop stop-color="#445463" offset="1"></stop>
    </linearGradient>
  </defs>
</svg>